<mxfile host="app.diagrams.net" modified="2024-08-06T08:17:26.992Z" agent="Mozilla/5.0 (Macintosh; Intel Mac OS X 10_15_7) AppleWebKit/537.36 (KHTML, like Gecko) Chrome/127.0.0.0 Safari/537.36" etag="xC55N6yj8G8XIHso-5G6" version="24.7.1" type="github">
  <diagram name="第 1 页" id="Ez9o0jnMFu-EMF3V-nLi">
    <mxGraphModel dx="1407" dy="733" grid="1" gridSize="10" guides="1" tooltips="1" connect="1" arrows="1" fold="1" page="1" pageScale="1" pageWidth="1600" pageHeight="1200" math="0" shadow="0">
      <root>
        <mxCell id="0" />
        <mxCell id="1" parent="0" />
        <mxCell id="hj8aBXJMG3FdwWso9H0L-6" style="edgeStyle=orthogonalEdgeStyle;rounded=0;orthogonalLoop=1;jettySize=auto;html=1;exitX=0.5;exitY=1;exitDx=0;exitDy=0;" edge="1" parent="1" source="hj8aBXJMG3FdwWso9H0L-1" target="hj8aBXJMG3FdwWso9H0L-2">
          <mxGeometry relative="1" as="geometry" />
        </mxCell>
        <mxCell id="hj8aBXJMG3FdwWso9H0L-1" value="开始" style="rounded=1;whiteSpace=wrap;html=1;fillColor=#dae8fc;strokeColor=#6c8ebf;" vertex="1" parent="1">
          <mxGeometry x="840" y="80" width="120" height="40" as="geometry" />
        </mxCell>
        <mxCell id="hj8aBXJMG3FdwWso9H0L-7" style="edgeStyle=orthogonalEdgeStyle;rounded=0;orthogonalLoop=1;jettySize=auto;html=1;exitX=0.5;exitY=1;exitDx=0;exitDy=0;" edge="1" parent="1" source="hj8aBXJMG3FdwWso9H0L-2" target="hj8aBXJMG3FdwWso9H0L-3">
          <mxGeometry relative="1" as="geometry" />
        </mxCell>
        <mxCell id="hj8aBXJMG3FdwWso9H0L-2" value="md5（原始链接）" style="rounded=1;whiteSpace=wrap;html=1;fillColor=#dae8fc;strokeColor=#6c8ebf;" vertex="1" parent="1">
          <mxGeometry x="840" y="160" width="120" height="40" as="geometry" />
        </mxCell>
        <mxCell id="hj8aBXJMG3FdwWso9H0L-33" style="edgeStyle=orthogonalEdgeStyle;rounded=0;orthogonalLoop=1;jettySize=auto;html=1;exitX=0.5;exitY=1;exitDx=0;exitDy=0;entryX=0.5;entryY=0;entryDx=0;entryDy=0;" edge="1" parent="1" source="hj8aBXJMG3FdwWso9H0L-3" target="hj8aBXJMG3FdwWso9H0L-32">
          <mxGeometry relative="1" as="geometry" />
        </mxCell>
        <mxCell id="hj8aBXJMG3FdwWso9H0L-3" value="hash压缩值" style="rounded=1;whiteSpace=wrap;html=1;fillColor=#dae8fc;strokeColor=#6c8ebf;" vertex="1" parent="1">
          <mxGeometry x="840" y="240" width="120" height="40" as="geometry" />
        </mxCell>
        <mxCell id="hj8aBXJMG3FdwWso9H0L-9" style="edgeStyle=orthogonalEdgeStyle;rounded=0;orthogonalLoop=1;jettySize=auto;html=1;exitX=0.5;exitY=1;exitDx=0;exitDy=0;" edge="1" parent="1" source="hj8aBXJMG3FdwWso9H0L-4" target="hj8aBXJMG3FdwWso9H0L-5">
          <mxGeometry relative="1" as="geometry" />
        </mxCell>
        <mxCell id="hj8aBXJMG3FdwWso9H0L-4" value="转换为52进制" style="rounded=1;whiteSpace=wrap;html=1;fillColor=#dae8fc;strokeColor=#6c8ebf;" vertex="1" parent="1">
          <mxGeometry x="840" y="400" width="120" height="40" as="geometry" />
        </mxCell>
        <mxCell id="hj8aBXJMG3FdwWso9H0L-5" value="结束" style="rounded=1;whiteSpace=wrap;html=1;fillColor=#dae8fc;strokeColor=#6c8ebf;" vertex="1" parent="1">
          <mxGeometry x="840" y="480" width="120" height="40" as="geometry" />
        </mxCell>
        <mxCell id="hj8aBXJMG3FdwWso9H0L-13" value="短链" style="text;strokeColor=none;fillColor=none;html=1;fontSize=24;fontStyle=1;verticalAlign=middle;align=center;" vertex="1" parent="1">
          <mxGeometry x="1040" y="400" width="100" height="40" as="geometry" />
        </mxCell>
        <mxCell id="hj8aBXJMG3FdwWso9H0L-14" value="" style="endArrow=classic;html=1;rounded=0;entryX=0;entryY=0.5;entryDx=0;entryDy=0;" edge="1" parent="1" target="hj8aBXJMG3FdwWso9H0L-13">
          <mxGeometry width="50" height="50" relative="1" as="geometry">
            <mxPoint x="980" y="420" as="sourcePoint" />
            <mxPoint x="1040" y="380" as="targetPoint" />
            <Array as="points">
              <mxPoint x="1000" y="420" />
              <mxPoint x="970" y="420" />
            </Array>
          </mxGeometry>
        </mxCell>
        <mxCell id="hj8aBXJMG3FdwWso9H0L-16" value="最小值：&lt;span style=&quot;color: rgb(23, 80, 235); font-family: &amp;quot;JetBrains Mono&amp;quot;, monospace; font-size: 12pt; background-color: rgb(255, 255, 255);&quot;&gt;0x7FFFFFFFF+1&lt;/span&gt;" style="text;strokeColor=none;fillColor=none;html=1;fontSize=24;fontStyle=1;verticalAlign=middle;align=center;" vertex="1" parent="1">
          <mxGeometry x="1061" y="300.5" width="220" height="40" as="geometry" />
        </mxCell>
        <mxCell id="hj8aBXJMG3FdwWso9H0L-18" style="edgeStyle=orthogonalEdgeStyle;rounded=0;orthogonalLoop=1;jettySize=auto;html=1;exitX=0.5;exitY=1;exitDx=0;exitDy=0;" edge="1" parent="1" source="hj8aBXJMG3FdwWso9H0L-19" target="hj8aBXJMG3FdwWso9H0L-21">
          <mxGeometry relative="1" as="geometry" />
        </mxCell>
        <mxCell id="hj8aBXJMG3FdwWso9H0L-19" value="开始" style="rounded=1;whiteSpace=wrap;html=1;fillColor=#dae8fc;strokeColor=#6c8ebf;" vertex="1" parent="1">
          <mxGeometry x="110" y="80" width="120" height="40" as="geometry" />
        </mxCell>
        <mxCell id="hj8aBXJMG3FdwWso9H0L-20" style="edgeStyle=orthogonalEdgeStyle;rounded=0;orthogonalLoop=1;jettySize=auto;html=1;exitX=0.5;exitY=1;exitDx=0;exitDy=0;" edge="1" parent="1" source="hj8aBXJMG3FdwWso9H0L-21" target="hj8aBXJMG3FdwWso9H0L-23">
          <mxGeometry relative="1" as="geometry" />
        </mxCell>
        <mxCell id="hj8aBXJMG3FdwWso9H0L-21" value="md5（原始链接）" style="rounded=1;whiteSpace=wrap;html=1;fillColor=#dae8fc;strokeColor=#6c8ebf;" vertex="1" parent="1">
          <mxGeometry x="110" y="160" width="120" height="40" as="geometry" />
        </mxCell>
        <mxCell id="hj8aBXJMG3FdwWso9H0L-22" style="edgeStyle=orthogonalEdgeStyle;rounded=0;orthogonalLoop=1;jettySize=auto;html=1;exitX=0.5;exitY=1;exitDx=0;exitDy=0;" edge="1" parent="1" source="hj8aBXJMG3FdwWso9H0L-23" target="hj8aBXJMG3FdwWso9H0L-25">
          <mxGeometry relative="1" as="geometry" />
        </mxCell>
        <mxCell id="hj8aBXJMG3FdwWso9H0L-23" value="hash压缩" style="rounded=1;whiteSpace=wrap;html=1;fillColor=#dae8fc;strokeColor=#6c8ebf;" vertex="1" parent="1">
          <mxGeometry x="110" y="240" width="120" height="40" as="geometry" />
        </mxCell>
        <mxCell id="hj8aBXJMG3FdwWso9H0L-24" style="edgeStyle=orthogonalEdgeStyle;rounded=0;orthogonalLoop=1;jettySize=auto;html=1;exitX=0.5;exitY=1;exitDx=0;exitDy=0;" edge="1" parent="1" source="hj8aBXJMG3FdwWso9H0L-25" target="hj8aBXJMG3FdwWso9H0L-26">
          <mxGeometry relative="1" as="geometry" />
        </mxCell>
        <mxCell id="hj8aBXJMG3FdwWso9H0L-25" value="转换为62进制" style="rounded=1;whiteSpace=wrap;html=1;fillColor=#dae8fc;strokeColor=#6c8ebf;" vertex="1" parent="1">
          <mxGeometry x="110" y="320" width="120" height="40" as="geometry" />
        </mxCell>
        <mxCell id="hj8aBXJMG3FdwWso9H0L-26" value="结束" style="rounded=1;whiteSpace=wrap;html=1;fillColor=#dae8fc;strokeColor=#6c8ebf;" vertex="1" parent="1">
          <mxGeometry x="110" y="400" width="120" height="40" as="geometry" />
        </mxCell>
        <mxCell id="hj8aBXJMG3FdwWso9H0L-27" value="短链" style="text;strokeColor=none;fillColor=none;html=1;fontSize=24;fontStyle=1;verticalAlign=middle;align=center;" vertex="1" parent="1">
          <mxGeometry x="310" y="320" width="100" height="40" as="geometry" />
        </mxCell>
        <mxCell id="hj8aBXJMG3FdwWso9H0L-28" value="" style="endArrow=classic;html=1;rounded=0;entryX=0;entryY=0.5;entryDx=0;entryDy=0;" edge="1" parent="1" target="hj8aBXJMG3FdwWso9H0L-27">
          <mxGeometry width="50" height="50" relative="1" as="geometry">
            <mxPoint x="250" y="340" as="sourcePoint" />
            <mxPoint x="310" y="300" as="targetPoint" />
            <Array as="points">
              <mxPoint x="270" y="340" />
              <mxPoint x="240" y="340" />
            </Array>
          </mxGeometry>
        </mxCell>
        <mxCell id="hj8aBXJMG3FdwWso9H0L-29" value="最大值：&lt;span style=&quot;color: rgb(23, 80, 235); font-family: &amp;quot;JetBrains Mono&amp;quot;, monospace; font-size: 12pt; background-color: rgb(255, 255, 255);&quot;&gt;0x7FFFFFFFF&lt;/span&gt;" style="text;strokeColor=none;fillColor=none;html=1;fontSize=24;fontStyle=1;verticalAlign=middle;align=center;" vertex="1" parent="1">
          <mxGeometry x="324" y="240" width="220" height="40" as="geometry" />
        </mxCell>
        <mxCell id="hj8aBXJMG3FdwWso9H0L-30" value="" style="endArrow=classic;html=1;rounded=0;entryX=0;entryY=0.5;entryDx=0;entryDy=0;" edge="1" parent="1">
          <mxGeometry width="50" height="50" relative="1" as="geometry">
            <mxPoint x="252" y="259.5" as="sourcePoint" />
            <mxPoint x="312" y="259.5" as="targetPoint" />
            <Array as="points">
              <mxPoint x="272" y="259.5" />
              <mxPoint x="242" y="259.5" />
            </Array>
          </mxGeometry>
        </mxCell>
        <mxCell id="hj8aBXJMG3FdwWso9H0L-31" value="最大值：&lt;span style=&quot;color: rgb(23, 80, 235); font-family: &amp;quot;JetBrains Mono&amp;quot;, monospace; font-size: 12pt; background-color: rgb(255, 255, 255);&quot;&gt;0xFFFFFFFFF&lt;/span&gt;" style="text;strokeColor=none;fillColor=none;html=1;fontSize=24;fontStyle=1;verticalAlign=middle;align=center;" vertex="1" parent="1">
          <mxGeometry x="1052" y="339.5" width="220" height="40" as="geometry" />
        </mxCell>
        <mxCell id="hj8aBXJMG3FdwWso9H0L-34" style="edgeStyle=orthogonalEdgeStyle;rounded=0;orthogonalLoop=1;jettySize=auto;html=1;exitX=0.5;exitY=1;exitDx=0;exitDy=0;" edge="1" parent="1" source="hj8aBXJMG3FdwWso9H0L-32" target="hj8aBXJMG3FdwWso9H0L-4">
          <mxGeometry relative="1" as="geometry" />
        </mxCell>
        <mxCell id="hj8aBXJMG3FdwWso9H0L-32" value="&lt;p&gt;hash压缩+&lt;span style=&quot;color: rgb(23, 80, 235); font-family: &amp;quot;JetBrains Mono&amp;quot;, monospace; font-weight: 700; text-wrap: nowrap; background-color: rgb(255, 255, 255);&quot;&gt;&lt;font style=&quot;font-size: 12px;&quot;&gt;0x7FFFFFFFF&lt;/font&gt;&lt;/span&gt;&lt;/p&gt;" style="rounded=1;whiteSpace=wrap;html=1;fillColor=#dae8fc;strokeColor=#6c8ebf;" vertex="1" parent="1">
          <mxGeometry x="840" y="320" width="120" height="40" as="geometry" />
        </mxCell>
        <mxCell id="hj8aBXJMG3FdwWso9H0L-35" value="" style="endArrow=classic;html=1;rounded=0;entryX=0;entryY=0.5;entryDx=0;entryDy=0;" edge="1" parent="1">
          <mxGeometry width="50" height="50" relative="1" as="geometry">
            <mxPoint x="980" y="340.5" as="sourcePoint" />
            <mxPoint x="1040" y="340.5" as="targetPoint" />
            <Array as="points">
              <mxPoint x="1000" y="340.5" />
              <mxPoint x="970" y="340.5" />
            </Array>
          </mxGeometry>
        </mxCell>
      </root>
    </mxGraphModel>
  </diagram>
</mxfile>
